<?xml version="1.0" encoding="utf-8"?>
<!-- Generator: Adobe Illustrator 23.0.1, SVG Export Plug-In . SVG Version: 6.00 Build 0)  -->
<svg version="1.1" id="Capa_1" xmlns="http://www.w3.org/2000/svg" xmlns:xlink="http://www.w3.org/1999/xlink" x="0px" y="0px"
	 viewBox="0 0 512 512" style="enable-background:new 0 0 512 512;" xml:space="preserve">
<g>
	<g>
		<path d="M253.6,381.2l2.2-0.6c14.4-3.9,28.4-9.7,41.4-17.1l2-1.1L432.8,496c8.4,8.4,19.6,13,31.6,13c12,0,23.2-4.6,31.6-13
			c8.4-8.4,13-19.6,13-31.6c0-12-4.6-23.2-13-31.6L362.4,299.2l1.1-2c7.5-13,13.2-27,17.1-41.4l0.6-2.2h10.9
			c12.5,0,22.7-10.2,22.7-22.7v-43.9c0-12.5-10.2-22.7-22.7-22.7h-10.9l-0.6-2.2c-3.9-14.5-9.7-28.4-17.2-41.4l-1.1-2l7.7-7.7
			c4.3-4.3,6.7-10,6.7-16.1c0-6.1-2.4-11.8-6.6-16L339,47.7c-8.9-8.8-23.3-8.8-32.1,0l-7.7,7.7l-2-1.1c-13-7.4-26.9-13.2-41.4-17.2
			l-2.2-0.6V25.7c0-12.5-10.2-22.7-22.7-22.7h-43.9c-12.5,0-22.7,10.2-22.7,22.7v10.9l-2.2,0.6c-14.5,3.9-28.4,9.7-41.4,17.1l-2,1.1
			l-7.7-7.7c-4.3-4.3-10-6.6-16-6.6s-11.8,2.4-16,6.6L47.8,78.8c-8.8,8.8-8.8,23.2,0,32.1l7.7,7.7l-1.1,2
			c-7.4,13-13.2,26.9-17.1,41.4l-0.6,2.2H25.7C13.2,164.2,3,174.4,3,186.9v43.9c0,12.5,10.2,22.7,22.7,22.7h10.9l0.6,2.2
			c3.9,14.5,9.7,28.4,17.2,41.4l1.1,2l-7.7,7.7c-8.8,8.8-8.8,23.2,0,32.1l31,31c4.3,4.3,10,6.7,16.1,6.7c6.1,0,11.8-2.4,16-6.6
			l7.7-7.7l2,1.1c13,7.5,26.9,13.2,41.4,17.2l2.2,0.6v10.9c0,12.5,10.2,22.7,22.7,22.7h43.9c12.5,0,22.7-10.2,22.7-22.7V381.2z
			 M486.1,442.7c5.8,5.8,8.9,13.4,8.9,21.7c0,8.2-3.2,15.9-8.9,21.7c-5.8,5.8-13.4,8.9-21.7,8.9s-15.9-3.2-21.7-8.9l-43.4-43.4
			l43.3-43.3L486.1,442.7z M432.7,389.4l-43.3,43.3l-34-34l43.4-43.4L432.7,389.4z M245,368.9c-3.2,0.7-5.5,3.5-5.5,6.8v16.4
			c0,4.7-4,8.7-8.7,8.7h-43.9c-4.7,0-8.7-4-8.7-8.7v-16.4c0-3.3-2.3-6.1-5.5-6.8c-18.3-4.1-35.6-11.3-51.4-21.3
			c-2.8-1.8-6.4-1.4-8.7,1L101,360.1c-2.2,2.2-4.8,2.5-6.1,2.5s-3.9-0.3-6.2-2.5l-31-31c-3.3-3.4-3.3-9,0-12.3l11.6-11.6
			c2.3-2.3,2.7-5.9,1-8.7c-10-15.8-17.2-33.1-21.3-51.5c-0.7-3.2-3.5-5.5-6.8-5.5H25.7c-4.7,0-8.7-4-8.7-8.7v-43.9
			c0-4.7,4-8.7,8.7-8.7h16.4c3.3,0,6.1-2.2,6.8-5.5c4.1-18.4,11.3-35.7,21.3-51.5c1.8-2.8,1.4-6.4-1-8.7L57.7,101
			c-1.6-1.6-2.5-3.8-2.5-6.1c0-2.3,0.9-4.5,2.5-6.1l31.1-31.1c2.2-2.2,4.8-2.5,6.1-2.5c1.4,0,4,0.3,6.1,2.5l11.6,11.6
			c2.3,2.3,5.9,2.7,8.7,1c15.8-10,33.1-17.2,51.5-21.3c3.2-0.7,5.5-3.5,5.5-6.8V25.7c0-4.7,4-8.7,8.7-8.7h43.9c4.7,0,8.7,4,8.7,8.7
			v16.4c0,3.3,2.2,6.1,5.5,6.8c18.3,4.1,35.7,11.3,51.5,21.3c2.8,1.8,6.4,1.4,8.7-1l11.6-11.6c3.3-3.3,9-3.3,12.3,0l31.1,31.1
			c2.2,2.2,2.5,4.8,2.5,6.1c0,1.4-0.3,3.9-2.5,6.2l-11.6,11.6c-2.3,2.3-2.7,5.9-1,8.7c10,15.8,17.2,33.2,21.3,51.4
			c0.7,3.2,3.5,5.5,6.8,5.5h16.4c4.7,0,8.7,4,8.7,8.7v43.9c0,4.7-4,8.7-8.7,8.7h-16.4c-3.3,0-6.1,2.3-6.8,5.5
			c-4.1,18.2-11.2,35.6-21.3,51.5c-1.8,2.8-1.4,6.4,1,8.7l40.3,40.3l-43.4,43.4l-40.3-40.3c-1.3-1.3-3.1-2-5-2
			c-1.3,0-2.6,0.4-3.7,1.1C280.6,357.6,263.3,364.8,245,368.9z"/>
		<path d="M262,88.4c-16.8-7.4-34.6-11.1-53.1-11.1c-72.6,0-131.7,59.1-131.7,131.7c0,72.6,59.1,131.6,131.7,131.6
			c72.6,0,131.6-59.1,131.6-131.6c0-18.7-3.8-36.8-11.4-53.6v0c-1.6-3.5-5.7-5.1-9.3-3.5c-3.5,1.6-5.1,5.7-3.5,9.2
			c6.7,15.1,10.2,31.2,10.2,47.9c0,64.9-52.8,117.6-117.6,117.6c-64.9,0-117.7-52.8-117.7-117.6C91.2,144,144,91.2,208.9,91.2
			c16.5,0,32.4,3.3,47.4,9.9c1.7,0.8,3.6,0.8,5.4,0.1c1.7-0.7,3.1-2,3.9-3.7C267.1,94.1,265.5,89.9,262,88.4z"/>
		<path d="M219.5,161.2c-3.8-0.8-7.5,1.5-8.4,5.3L193,248.2c-0.8,3.8,1.5,7.5,5.3,8.4c0.5,0.1,1,0.2,1.5,0.2c3.2,0,6.1-2.3,6.8-5.5
			l18.2-81.7C225.6,165.8,223.3,162.1,219.5,161.2z"/>
		<path d="M137.1,208.9l24.2-29.2c2.5-3,2.1-7.4-0.9-9.9c-1.3-1.1-2.9-1.6-4.5-1.6c-2,0-4,0.9-5.4,2.5l-27.9,33.7
			c-2.1,2.6-2.1,6.3,0,8.9l27.9,33.7c1.3,1.6,3.3,2.5,5.4,2.5c1.6,0,3.2-0.6,4.5-1.6c3-2.5,3.4-6.9,0.9-9.9L137.1,208.9z"/>
		<path d="M267.3,247l27.9-33.7c2.1-2.6,2.1-6.3,0-8.9l-27.9-33.7c-1.2-1.4-2.9-2.3-4.7-2.5c-0.2,0-0.4,0-0.7,0
			c-1.6,0-3.2,0.6-4.5,1.6c-1.4,1.2-2.3,2.9-2.5,4.7c-0.2,1.9,0.4,3.7,1.6,5.1l24.2,29.2l-24.2,29.2c-1.2,1.4-1.8,3.3-1.6,5.1
			s1.1,3.5,2.5,4.7c1.3,1.1,2.8,1.6,4.5,1.6C264,249.6,266,248.7,267.3,247z"/>
		<path d="M290.6,117.5c-1.7,3.5-0.3,7.7,3.2,9.4c1,0.5,2,0.7,3.1,0.7c2.7,0,5.1-1.5,6.3-3.9c0.8-1.7,0.9-3.6,0.3-5.3
			c-0.6-1.8-1.9-3.2-3.5-4c-1.7-0.8-3.6-1-5.4-0.4C292.8,114.5,291.4,115.8,290.6,117.5z"/>
	</g>
</g>
</svg>
