<?xml version="1.0" encoding="utf-8"?>
<!-- Generator: Adobe Illustrator 23.0.1, SVG Export Plug-In . SVG Version: 6.00 Build 0)  -->
<svg version="1.1" id="Слой_1" xmlns="http://www.w3.org/2000/svg" xmlns:xlink="http://www.w3.org/1999/xlink" x="0px" y="0px"
	 viewBox="0 0 512 512" style="enable-background:new 0 0 512 512;" xml:space="preserve">
<g>
	<ellipse transform="matrix(0.9732 -0.2298 0.2298 0.9732 -31.75 63.3106)" cx="256" cy="168" rx="44" ry="44"/>
	<path d="M256,0C114.6,0,0,114.6,0,256s114.6,256,256,256s256-114.6,256-256S397.4,0,256,0z M256,80c48.5,0,88,39.5,88,88
		c0,48.5-39.5,88-88,88s-88-39.5-88-88C168,119.5,207.5,80,256,80z M372.7,284.7c-27.4,27.4-62.1,43-97.8,47l62.7,62.7
		c8.6,8.6,8.6,22.5,0,31.1c-4.3,4.3-9.9,6.4-15.6,6.4c-5.6,0-11.3-2.2-15.6-6.4L256,375.1l-50.4,50.4c-8.6,8.6-22.5,8.6-31.1,0
		s-8.6-22.5,0-31.1l62.7-62.7c-35.8-4.1-70.5-19.7-97.8-47c-8.6-8.6-8.6-22.5,0-31.1s22.5-8.6,31.1,0c47.2,47.2,124,47.2,171.1,0
		c8.6-8.6,22.5-8.6,31.1,0C381.3,262.2,381.3,276.1,372.7,284.7z"/>
</g>
</svg>
