<?xml version="1.0" encoding="utf-8"?>
<!-- Generator: Adobe Illustrator 23.0.1, SVG Export Plug-In . SVG Version: 6.00 Build 0)  -->
<svg version="1.1" id="Capa_1" xmlns="http://www.w3.org/2000/svg" xmlns:xlink="http://www.w3.org/1999/xlink" x="0px" y="0px"
	 viewBox="0 0 512 512" style="enable-background:new 0 0 512 512;" xml:space="preserve">
<g>
	<path d="M145.7,339.9l179.4-73.3c10.5-4.3,15.6-16.3,11.3-26.8v0c-3.3-8-11-12.8-19.1-12.8c-2.6,0-5.2,0.5-7.8,1.5l-179.3,73.3
		c-5.1,2.1-9.1,6-11.2,11.1c-2.1,5.1-2.2,10.7-0.1,15.8c1,2.5,2.6,4.8,4.5,6.8c3.9,3.9,9.1,6,14.5,6
		C140.6,341.5,143.2,341,145.7,339.9z M130,324.1c-0.9-2.1-0.9-4.5,0-6.6c0.9-2.1,2.5-3.8,4.7-4.6l179.3-73.3
		c4.4-1.8,9.4,0.3,11.2,4.7c0.9,2.1,0.9,4.5,0,6.6s-2.5,3.8-4.7,4.6l-179.4,73.3c-1.1,0.4-2.2,0.6-3.3,0.6c-2.2,0-4.4-0.9-6.1-2.5
		C131.1,326.2,130.5,325.2,130,324.1z"/>
	<path d="M180.7,237.2c9.5,9.5,22.4,14.7,36.4,14.7c15.8,0,31.6-6.7,43.4-18.5c11.2-11.2,17.7-25.6,18.4-40.7
		c0.7-15.1-4.5-28.9-14.6-39c-9.8-9.8-22.9-14.7-36.4-14.7c-15.3,0-31.1,6.2-43.4,18.5C161.5,180.5,159.8,216.3,180.7,237.2z
		 M193,165.9c9.5-9.5,22.2-15,34.9-15c10.8,0,20.7,4,27.9,11.2c16.3,16.3,14.6,44.4-3.8,62.8c-8.9,8.9-20.2,14.1-32.1,14.9
		c-1,0.1-1.9,0.1-2.8,0.1c-10.8,0-20.6-3.9-27.9-11.2c-7.9-7.9-11.8-18.8-11.1-30.7C178.9,186.2,184.1,174.8,193,165.9z"/>
	<path d="M243.7,174.3c-4-4-9.6-6.1-15.8-6.1c-1.1,0-2.3,0.1-3.5,0.2c-7.1,0.9-13.9,4.3-19.3,9.7c-5.4,5.4-8.8,12.2-9.7,19.3
		c-1,7.5,1.2,14.5,5.9,19.2c4,4,9.6,6.1,15.8,6.1c0,0,0,0,0,0c1.1,0,2.3-0.1,3.5-0.2c7.1-0.9,13.9-4.3,19.3-9.7h0
		c5.4-5.4,8.8-12.2,9.7-19.3C250.5,186,248.4,179,243.7,174.3z M237.7,192c-0.6,4.4-2.8,8.9-6.3,12.3c-3.4,3.4-7.9,5.7-12.3,6.3
		c-0.7,0.1-1.3,0.1-2,0.1c-3,0-5.6-0.9-7.3-2.6c-2.1-2.1-3-5.4-2.5-9.2c0.6-4.4,2.8-8.9,6.3-12.3c3.4-3.4,7.9-5.7,12.3-6.3
		c0.7-0.1,1.3-0.1,2-0.1c3,0,5.6,0.9,7.3,2.6C237.2,184.8,238.1,188.2,237.7,192z"/>
	<path d="M255.4,372.1c1-7.5-1.2-14.5-5.9-19.2c-4-4-9.6-6.1-15.8-6.1c-1.1,0-2.3,0.1-3.4,0.2c-7.1,0.9-13.9,4.3-19.3,9.7
		c-5.4,5.4-8.8,12.2-9.7,19.3c-0.9,7.5,1.2,14.5,5.9,19.2c4,4,9.6,6.1,15.8,6.1c1.1,0,2.3-0.1,3.5-0.2c7.1-0.9,13.9-4.3,19.3-9.7
		C251.1,386,254.5,379.2,255.4,372.1z M243.5,370.6c-0.6,4.4-2.8,8.9-6.3,12.3c-3.4,3.4-7.9,5.7-12.3,6.3c-0.7,0.1-1.3,0.1-2,0.1
		c-3,0-5.6-0.9-7.3-2.6h0c-2.1-2.1-3-5.4-2.5-9.2c0.6-4.4,2.8-8.9,6.3-12.3c3.4-3.4,7.9-5.7,12.3-6.3c3.8-0.5,7.2,0.4,9.2,2.5
		C243.1,363.4,244,366.8,243.5,370.6z"/>
	<path d="M231.2,429.8c0.3,0,0.6,0,1-0.1c12.7-2,24.8-8.3,34.2-17.7c11.2-11.2,17.7-25.6,18.4-40.7c0.7-15.1-4.5-28.9-14.6-39
		c-20.9-20.9-56.7-19.2-79.8,3.8c-23,23-24.7,58.8-3.8,79.8c3.7,3.7,8,6.8,12.7,9.2c3,1.5,6.6,0.3,8.1-2.7c1.5-3,0.3-6.6-2.7-8.1
		c-3.6-1.8-6.8-4.1-9.6-6.9c-16.3-16.3-14.6-44.4,3.8-62.8c9.9-9.9,22.7-15,34.9-15c10.4,0,20.4,3.7,27.9,11.2
		c16.3,16.3,14.6,44.4-3.8,62.8c-7.6,7.6-17.4,12.7-27.6,14.4c-3.3,0.5-5.5,3.6-5,6.9C225.7,427.7,228.2,429.8,231.2,429.8z"/>
	<path d="M508,28.4c-5.7-14.4-16.9-23.2-31.5-24.8c-25.7-2.7-59.5,17.1-82.2,48.3l-0.6,0.8l-1-0.3c-17.7-5-35.1-8.7-52-10.9
		c-3.3-0.4-6.3,1.9-6.7,5.2c-0.2,1.6,0.2,3.2,1.2,4.4c1,1.3,2.4,2.1,4,2.3c25.5,3.3,52.1,10,79.1,20c8.5,3.1,15.2,9.8,18.4,18.4
		c0.7,2,1.4,4,2.1,6l0.4,1.2l-1.1,0.6c-9.3,5-19.4,9.9-30.1,14.6l-1.2,0.5l-0.7-1c-1.3-1.9-2.7-3.7-4.4-5.3
		c-6.6-6.6-15.4-10.3-24.8-10.3c-9.4,0-18.1,3.6-24.8,10.3c-6.6,6.6-10.2,15.4-10.2,24.8c0,9.4,3.6,18.2,10.2,24.8
		c6.6,6.6,15.4,10.2,24.8,10.2s18.2-3.6,24.8-10.2c8-8,11.7-19.6,9.7-30.8l-0.2-1.2l1.1-0.5c10.3-4.5,20.1-9.2,29.1-14l1.6-0.8
		l0.5,1.7c21.3,68.9,15.4,116.6,11.8,133.9c-1,5.1-3.4,9.8-6.8,13.8c-75.6,88.7-141.3,155-226.8,229.1c-11.2,9.7-27.8,10.1-39.5,0.9
		C122.3,442.5,67.7,387.8,20.1,327.7c-9.2-11.6-8.8-28.2,0.9-39.5c74-85.4,140.4-151.1,229.1-226.8c4-3.4,8.7-5.7,13.8-6.8
		c9.3-1.9,24.9-4.1,46.1-3.5c3.3,0.1,6.1-2.6,6.2-5.8c0-1.6-0.5-3.1-1.6-4.3c-1.1-1.2-2.6-1.8-4.2-1.9c-2.4-0.1-4.7-0.1-7-0.1
		c-18.8,0-33,2-41.9,3.9c-7,1.5-13.7,4.7-19.2,9.4C153.2,128.4,86.4,194.5,12,280.4C-1.5,296-2,319,10.7,335.1
		C58.9,396,114.1,451.3,175,499.4c7.5,6,17,9.2,26.6,9.2c10.4,0,20.4-3.7,28.2-10.5c85.9-74.5,152-141.2,228-230.3
		c4.7-5.5,8-12.2,9.4-19.2c2.4-11.8,5-31.5,3.4-58.4c-1.6-27-7.2-55.4-16.4-84.5l-0.4-1.1l1-0.6c17.9-10.5,31.7-21,40.9-31.2
		C509.5,57.6,513.7,42.6,508,28.4z M382.7,112.7l0.2-1.9l1.8,0.6c3.3,1.2,6.1,3,8.6,5.4c0.3,0.3,0.5,0.6,0.8,0.9l1.6,1.8l-2,0.8
		c-3.2,1.3-6.3,2.5-9.4,3.7l-2,0.8l0-2.2C382.3,119.5,382.4,116.2,382.7,112.7z M393.3,149.4c-4.3,4.3-10.1,6.7-16.3,6.7
		c-6.2,0-11.9-2.4-16.3-6.7c-4.3-4.3-6.7-10.1-6.7-16.3s2.4-11.9,6.7-16.3c2.2-2.2,4.9-4,7.9-5.1l2.2-0.9l-0.2,2.4
		c-0.6,7-0.4,14,0.4,20.7c0.2,1.8,1.2,3.4,2.8,4.3c1.5,0.9,3.4,1.2,5.1,0.6c0.8-0.3,8.1-2.8,19-7.3l2-0.8l0,2.2
		C400.1,139.2,397.7,145,393.3,149.4z M451.4,92.1l-1.6,0.9l-1-2.7c-0.3-0.9-0.6-1.8-1-2.6c-4.4-11.8-13.7-21.1-25.5-25.5
		c-4.7-1.7-9.6-3.4-14.5-5l-2-0.7l1.3-1.7c20-25.3,48-41.4,68-39.3c10.2,1.1,17.5,6.9,21.6,17.3C505.3,54.1,476.8,76.8,451.4,92.1z"
		/>
</g>
</svg>
