<?xml version="1.0" encoding="utf-8"?>
<!-- Generator: Adobe Illustrator 23.0.1, SVG Export Plug-In . SVG Version: 6.00 Build 0)  -->
<svg version="1.1" id="Capa_1" xmlns="http://www.w3.org/2000/svg" xmlns:xlink="http://www.w3.org/1999/xlink" x="0px" y="0px"
	 viewBox="0 0 512 512" style="enable-background:new 0 0 512 512;" xml:space="preserve">
<g>
	<g>
		<path d="M509.6,90.3c-3.3-10.1-11.8-17.3-22.3-18.8l-43.9-6.4c-4.8-0.7-8.9-3.7-11-8l-19.6-39.8C408,7.8,398.5,1.8,387.9,1.8
			c-10.6,0-20.1,5.9-24.8,15.4l-19.6,39.8c-2.1,4.3-6.3,7.3-11,8l-43.9,6.4c-10.5,1.5-19.1,8.7-22.3,18.8c-3.3,10.1-0.6,21,7,28.4
			l31.8,31c3.5,3.4,5,8.2,4.2,13l-7.5,43.7c-1.8,10.5,2.4,20.8,11,27.1c4.8,3.5,10.4,5.3,16.2,5.3c4.4,0,8.9-1.1,12.9-3.2l39.3-20.6
			c4.3-2.2,9.4-2.2,13.7,0l39.3,20.6c9.4,4.9,20.6,4.1,29.2-2.1c8.6-6.2,12.8-16.6,11-27.1l-1.4-8.4c-0.3-1.7-1.2-3.2-2.7-4.2
			c-1.4-1-3.1-1.4-4.8-1.1c-3.5,0.6-5.9,4-5.3,7.5l1.4,8.4c1,5.6-1.2,11-5.8,14.3c-4.6,3.4-10.4,3.8-15.4,1.1l-39.3-20.6
			c-8.1-4.2-17.7-4.2-25.8,0L335.7,224c-5.1,2.7-10.8,2.2-15.4-1.1c-4.6-3.4-6.8-8.7-5.8-14.3l7.5-43.7c1.5-9-1.4-18.1-8-24.5
			l-31.8-31c-4.1-4-5.5-9.6-3.7-15c1.8-5.4,6.2-9.2,11.8-10l43.9-6.4c9-1.3,16.8-7,20.8-15.1L374.7,23c2.5-5.1,7.4-8.2,13.2-8.2
			s10.6,3.1,13.2,8.2l19.6,39.8c4,8.2,11.8,13.8,20.8,15.1l43.9,6.4c5.7,0.8,10.1,4.6,11.8,10c1.8,5.4,0.4,11.1-3.7,15l-31.8,31
			c-6.5,6.4-9.5,15.5-8,24.5l0.2,1.5c0.3,1.7,1.2,3.2,2.7,4.2c1.4,1,3.1,1.4,4.9,1.1c3.5-0.6,5.9-4,5.3-7.5l-0.3-1.5
			c-0.8-4.8,0.8-9.6,4.2-13l31.8-31C510.2,111.3,512.9,100.4,509.6,90.3z"/>
		<g>
			<path d="M412.2,325.9l-1.3-0.5l0.9-1c5.4-6.2,8.3-14.1,8.3-22.3c0-18.9-15.3-34.2-34.2-34.2l-115-0.1l-0.2-0.7
				c-0.1-0.4-1.3-3.7-2-5.3c-1.8-3.9-2.5-8.1-2-12.3c1.7-12.8,2.1-26,2.4-36.7c0.8-27.2-4.5-47-16.5-60.5
				c-12-13.6-29.2-21.4-47.3-21.4l-0.4,0c-9.8,0.1-17.8,8.2-17.8,18.1v33.3c0,21.4-3.5,51.1-20,71.5c-17.7,21.8-32.8,21.6-58,21.3
				l-3.6,0v-10c0-14.4-11.7-26.1-26.1-26.1H27.1c0,0,0,0,0,0c-7,0-13.5,2.7-18.4,7.7C3.7,251.3,1,257.8,1,264.8v75.4
				c0,3.6,2.9,6.5,6.5,6.5c3.6,0,6.5-2.9,6.5-6.5v-75.4c0-7.2,5.9-13.1,13.1-13.1h52.4c7.2,0,13.1,5.9,13.1,13.1v219.3
				c0,7.2-5.9,13.1-13.1,13.1H27.1c-7.2,0-13.1-5.9-13.1-13.1V374.4c0-3.6-2.9-6.5-6.5-6.5c-3.6,0-6.5,2.9-6.5,6.5v109.6
				c0,14.4,11.7,26.1,26.1,26.1h52.4c14.4,0,26.1-11.7,26.1-26.1v-12.3h11.1c5.1,0,10.2,1.8,14.3,5c1,0.8,2.2,1.8,3.5,2.9l0.1,0.1
				c9.3,7.9,26.6,22.7,51.2,22.7l184.3,0c18.9,0,34.2-15.3,34.2-34.2c0-7.8-2.7-15.4-7.6-21.5l-0.9-1.1l1.3-0.5
				c13.8-4.8,23-17.8,23-32.3c0-8.2-2.9-16.1-8.3-22.3l-0.9-1l1.3-0.5c12.7-5.4,21-17.8,21-31.5S424.9,331.2,412.2,325.9z
				 M321.8,280.8h64.1c11.7,0,21.2,9.5,21.2,21.2c0,11.7-9.5,21.2-21.2,21.2h-64.1c-11.7,0-21.2-9.5-21.2-21.2
				C300.6,290.3,310.1,280.8,321.8,280.8z M278,487.9l1.1,1.6h-93.3c-19.8,0-33.6-11.8-42.8-19.6c-1.3-1.1-2.7-2.3-3.9-3.3
				c-6.4-5.1-14.3-7.9-22.4-7.9h-11.1V287.8l3.4,0c26.1,0.3,46.6,0.6,68.2-26.1c10.5-12.9,22.9-37.2,22.9-79.7v-33.3
				c0-2.8,2.2-5,4.8-5.1l0.3,0c14.2,0,28.2,6.4,37.6,17c9.7,11,14,27.8,13.3,51.6c-0.3,10.4-0.7,23.3-2.3,35.4
				c-0.9,6.6,0.2,13.3,3.1,19.5l0.1,0.3c2.8,6.6,4.3,12.7,4.6,18.3c0.4,7.8-1.2,15.7-4.7,23.5c-0.1,0.2-7.3,16.2-27.2,25
				c-3.3,1.5-4.8,5.3-3.3,8.6c1,2.2,2.4,3.4,4.3,3.7c7.8,1.4,22-11.2,26.7-16.1c5.4-5.6,9.1-10.8,11.3-15.9
				c4.3-9.6,6.3-19.5,5.8-29.4c0-1-0.1-2.2-0.3-3.4l-0.1-1.1H295l-1.1,1.6c-4.1,5.8-6.3,12.6-6.3,19.8c0,13.8,8.2,26.2,21,31.5
				l1.3,0.5l-0.9,1c-5.4,6.2-8.3,14.1-8.3,22.3c0,8.2,2.9,16.1,8.3,22.3l0.9,1l-1.3,0.5c-12.7,5.4-21,17.8-21,31.5
				c0,7.8,2.7,15.4,7.6,21.5l0.9,1.1l-1.3,0.5c-13.8,4.8-23,17.8-23,32.3C271.8,475.3,273.9,482.1,278,487.9z M370.1,489.4l-64.1,0
				c-11.7,0-21.2-9.5-21.2-21.2c0-11.7,9.5-21.2,21.2-21.2h64.1c11.7,0,21.2,9.5,21.2,21.2C391.3,479.9,381.8,489.4,370.1,489.4z
				 M385.9,434h-64.1c-11.7,0-21.2-9.5-21.2-21.2s9.5-21.2,21.2-21.2h64.1c11.7,0,21.2,9.5,21.2,21.2
				C407.1,424.5,397.6,434,385.9,434z M398.9,378.6h-64.1c-11.7,0-21.2-9.5-21.2-21.2c0-11.7,9.5-21.2,21.2-21.2h64.1
				c11.7,0,21.2,9.5,21.2,21.2C420.1,369.1,410.6,378.6,398.9,378.6z"/>
			<polygon points="256,267.5 256,267.5 256,267.5 			"/>
		</g>
	</g>
</g>
</svg>
